<svg width="24" height="25" viewBox="0 0 24 25" fill="none" xmlns="http://www.w3.org/2000/svg">
<path d="M15 4.5L15 20.5M15 4.5H7.2002C6.08009 4.5 5.51962 4.5 5.0918 4.71799C4.71547 4.90973 4.40973 5.21547 4.21799 5.5918C4 6.01962 4 6.58009 4 7.7002V17.3002C4 18.4203 4 18.9796 4.21799 19.4074C4.40973 19.7837 4.71547 20.0905 5.0918 20.2822C5.51921 20.5 6.07901 20.5 7.19694 20.5L15 20.5M15 4.5H16.8002C17.9203 4.5 18.4796 4.5 18.9074 4.71799C19.2837 4.90973 19.5905 5.21547 19.7822 5.5918C20 6.0192 20 6.579 20 7.69691L20 17.3031C20 18.421 20 18.98 19.7822 19.4074C19.5905 19.7837 19.2837 20.0905 18.9074 20.2822C18.48 20.5 17.921 20.5 16.8031 20.5H15" stroke="#C4C4CD" stroke-width="2" stroke-linecap="round" stroke-linejoin="round"/>
</svg>
