<svg width="28" height="29" viewBox="0 0 28 29" fill="none" xmlns="http://www.w3.org/2000/svg">
<path d="M20.7703 24.1667L23.0919 24.1667C23.5964 24.1667 23.8488 24.1667 24.0608 24.077C24.248 23.9978 24.4127 23.8691 24.5376 23.7045C24.6791 23.5179 24.7487 23.2671 24.8874 22.7645L26.154 18.1728C26.3848 17.3362 26.4996 16.9178 26.409 16.5869C26.3296 16.2969 26.1486 16.0483 25.9013 15.8895C25.6353 15.7188 25.2467 15.7089 24.5003 15.7084M20.7703 24.1667H7.22973M20.7703 24.1667C22.0745 24.1667 22.7267 24.1667 23.2253 23.9035C23.6643 23.6718 24.0222 23.3016 24.2459 22.8469C24.5003 22.33 24.5003 21.6532 24.5003 20.2998V15.7084M7.22973 24.1667H5.97461C5.13511 24.1667 4.71421 24.1667 4.43197 23.9855C4.18464 23.8268 4.00335 23.578 3.92394 23.2881C3.90721 23.227 3.89752 23.163 3.89429 23.0939M7.22973 24.1667C5.92549 24.1667 5.2724 24.1667 4.77376 23.9035C4.41728 23.7154 4.11508 23.4358 3.89429 23.0939M24.5003 15.7084C24.4543 15.7083 24.407 15.7083 24.3583 15.7083H5.83366L4.18018 21.7022L4.17778 21.7106C3.99097 22.3878 3.88007 22.7898 3.89429 23.0939M24.5003 15.7084L24.5003 11.1164C24.5003 9.76294 24.5003 9.08621 24.2459 8.56925C24.0222 8.11453 23.6646 7.74509 23.2255 7.5134C22.7264 7.25 22.0735 7.25 20.7667 7.25H14M3.89429 23.0939C3.84315 23.0147 3.79638 22.9322 3.75432 22.8467C3.5 22.3297 3.5 21.6535 3.5 20.3V7.25M3.5 7.25H14M3.5 7.25C3.5 5.91531 4.54467 4.83333 5.83333 4.83333H10.1203C10.691 4.83333 10.977 4.83333 11.2455 4.9001C11.4836 4.95931 11.7108 5.05719 11.9196 5.1897C12.155 5.3391 12.3571 5.54844 12.7604 5.96614L14 7.25" stroke="#C4C4CD" stroke-width="2" stroke-linecap="round" stroke-linejoin="round"/>
</svg>
