<svg width="20" height="20" viewBox="0 0 20 20" fill="none" xmlns="http://www.w3.org/2000/svg">
<path d="M10 6.66709L3.33337 13.3338V16.6671L6.66671 16.6671L13.3334 10.0004M10 6.66709L12.3906 4.27654L12.392 4.27513C12.7211 3.94606 12.8859 3.78123 13.0759 3.7195C13.2433 3.66512 13.4236 3.66512 13.5909 3.7195C13.7808 3.78119 13.9454 3.94583 14.274 4.27443L15.7239 5.72426C16.0539 6.05427 16.219 6.21936 16.2808 6.40963C16.3352 6.577 16.3352 6.75729 16.2808 6.92466C16.219 7.11479 16.0542 7.27963 15.7246 7.60917L15.7239 7.60988L13.3334 10.0004M10 6.66709L13.3334 10.0004" stroke="#C4C4CD" stroke-width="2" stroke-linecap="round" stroke-linejoin="round"/>
</svg>
