<svg width="40" height="40" viewBox="0 0 40 40" fill="none" xmlns="http://www.w3.org/2000/svg">
<mask id="mask0_272_9527" style="mask-type:alpha" maskUnits="userSpaceOnUse" x="0" y="0" width="40" height="40">
<rect width="40" height="40" fill="#FFE600"/>
</mask>
<g mask="url(#mask0_272_9527)">
<path d="M30.0209 17.4313L8.9125 7.13438C8.70965 7.03554 8.48498 6.98994 8.25965 7.00186C8.03431 7.01378 7.81571 7.08284 7.62442 7.20253C7.43314 7.32222 7.27546 7.48862 7.16622 7.68605C7.05698 7.88348 6.99978 8.10546 7 8.33109V8.36927C7.00011 8.54765 7.02209 8.72533 7.06546 8.89835L9.09033 16.9971C9.11747 17.105 9.17696 17.202 9.26081 17.2751C9.34466 17.3483 9.44887 17.394 9.55945 17.4062L18.4586 18.3956C18.6067 18.4135 18.7431 18.4849 18.8421 18.5965C18.941 18.708 18.9957 18.852 18.9957 19.0011C18.9957 19.1502 18.941 19.2942 18.8421 19.4057C18.7431 19.5173 18.6067 19.5887 18.4586 19.6065L9.55945 20.596C9.44887 20.6082 9.34466 20.6539 9.26081 20.727C9.17696 20.8002 9.11747 20.8972 9.09033 21.0051L7.06546 29.1027C7.02209 29.2758 7.00011 29.4534 7 29.6318V29.67C6.99997 29.8955 7.0573 30.1174 7.16662 30.3147C7.27593 30.512 7.43363 30.6782 7.62489 30.7978C7.81614 30.9173 8.03467 30.9863 8.25992 30.9982C8.48517 31.01 8.70973 30.9644 8.9125 30.8656L30.0198 20.5687C30.3137 20.4253 30.5615 20.2022 30.7348 19.9249C30.9081 19.6475 31 19.327 31 19C31 18.673 30.9081 18.3525 30.7348 18.0751C30.5615 17.7978 30.3148 17.5747 30.0209 17.4313Z" fill="#FFE600"/>
</g>
</svg>
